<svg width="200" height="250" viewBox="0 0 200 250" xmlns="http://www.w3.org/2000/svg">
  <defs>
    <filter id="roughen">
      <feTurbulence type="fractalNoise" baseFrequency="0.9" numOctaves="1" stitchTiles="stitch"/>
      <feDisplacementMap in="SourceGraphic" scale="3"/>
    </filter>
  </defs>

  <g transform="rotate(-15 100 125)"> <path d="M160,20 C150,50 120,130 60,190" stroke="#101010" stroke-width="4" fill="none" stroke-linecap="round" />

    <g filter="url(#roughen)" opacity="0.9">
      <path d="M160,20 
               C175,35 185,55 188,80
               C190,100 185,120 175,140
               C165,160 145,180 110,200
               C80,215 50,220 30,220
               C50,210 70,195 90,175
               C110,155 130,125 140,95
               C145,75 145,50 145,30 Z" 
            fill="black" />
            
      <path d="M175,45 L160,50 M182,65 L165,70 M185,85 L168,90 M182,105 L165,110 M175,125 L160,130 M165,145 L150,150 M150,165 L135,170" 
            stroke="#1a1a1a" stroke-width="0.7" fill="none"/>
      <path d="M188,80 L168,90 M182,105 L165,110" stroke="#1a1a1a" stroke-width="1.2" fill="none"/>
    </g>

    <g filter="url(#roughen)" opacity="0.95">
      <path d="M160,20
               C155,35 150,50 145,65
               C140,80 130,95 120,105
               C110,115 95,125 70,170
               C85,130 105,110 115,95
               C125,80 135,60 140,40
               C145,30 150,25 160,20 Z"
            fill="#080808" />
      <path d="M150,35 L142,38 M145,50 L137,53 M138,65 L130,68 M128,80 L120,83 M115,95 L107,98"
            stroke="#1a1a1a" stroke-width="0.5" fill="none"/>
    </g>
    
    <path d="M30,220 L22,210 C18,205 15,195 18,185 L28,182 L35,188 L32,198 C30,205 32,215 30,220 Z" fill="black" stroke="#101010" stroke-width="1"/>
    
    <line x1="20" y1="192" x2="28" y2="185" stroke="#1a1a1a" stroke-width="1.2" stroke-linecap="round"/>
    
    <ellipse cx="28" cy="184" rx="1.5" ry="2.5" fill="#020202"/>
  
  </g>

</svg>
